# xmcd CD database file
#
# Track frame offsets:
#	182
#	13580
#	29335
#	48707
#	62290
#	80030
#	98670
#	118815
#	132935
#	150215
#
# Disc length: 2196 seconds
#
# Revision: 10
# Processed by: cddbd v1.5.2PL0 Copyright (c) Steve Scherf et al.
# Submitted via: CDex 1.77
#
DISCID=7608920a
DTITLE=Carly Simon - No Secrets
DYEAR=1972
DGENRE=Pop/Rock
TTITLE0=The Right Thing To Do
TTITLE1=The Carter Family
TTITLE2=You're So Vain
TTITLE3=His Friends Are More Than Fond Of Robin
TTITLE4=We Have No Secrets
TTITLE5=Embrace Me, You Child
TTITLE6=Waited So Long
TTITLE7=It Was So Easy
TTITLE8=Night Owl
TTITLE9=When You Close Your Eyes
EXTD=YEAR: 1972
EXTT0=
EXTT1=
EXTT2=
EXTT3=
EXTT4=
EXTT5=
EXTT6=
EXTT7=
EXTT8=
EXTT9=
PLAYORDER=
